<?xml version="1.0" standalone="no"?>
<!DOCTYPE svg PUBLIC "-//W3C//DTD SVG 20010904//EN"
 "http://www.w3.org/TR/2001/REC-SVG-20010904/DTD/svg10.dtd">
<svg version="1.0" xmlns="http://www.w3.org/2000/svg"
 width="431.000000pt" height="431.000000pt" viewBox="0 0 431.000000 431.000000"
 preserveAspectRatio="xMidYMid meet">
<metadata>
Created by potrace 1.11, written by Peter Selinger 2001-2013
</metadata>
<g transform="translate(0.000000,431.000000) scale(0.100000,-0.100000)"
fill="#000000" stroke="none">
<path d="M1501 3892 c-38 -37 -50 -56 -53 -84 l-3 -35 -144 38 -145 39 -53
-52 -53 -53 2 -199 3 -200 96 -24 96 -25 52 51 c42 42 51 57 51 86 l0 35 113
-30 c61 -17 129 -35 150 -40 l37 -10 0 -135 c0 -114 -2 -135 -14 -131 -8 3
-31 9 -50 13 -33 6 -40 3 -86 -44 -41 -41 -50 -57 -50 -85 l0 -35 -49 13 -49
13 -51 -52 -51 -52 0 -200 0 -199 98 -26 97 -25 3 -101 3 -101 57 -15 c31 -9
76 -21 99 -27 l42 -11 3 -101 3 -102 98 -25 97 -25 0 -433 c0 -341 -3 -433
-13 -433 -6 0 -28 4 -47 10 -33 10 -36 8 -87 -42 -43 -43 -53 -59 -53 -86 0
-31 -2 -34 -22 -28 -75 21 -76 21 -128 -32 l-50 -51 0 -100 0 -100 38 -10 c20
-5 64 -17 97 -25 l60 -15 39 37 c60 55 65 64 66 100 0 17 2 32 4 32 3 0 47
-12 98 -26 51 -14 116 -31 143 -38 l50 -11 3 -102 3 -102 42 -11 c23 -6 67
-18 98 -27 l56 -15 52 54 51 53 0 197 0 197 -52 15 c-29 8 -74 20 -100 27
l-48 11 0 434 c0 239 3 434 6 434 3 0 25 -5 48 -11 l44 -11 51 54 c41 42 51
60 51 87 0 26 3 32 16 27 9 -3 32 -9 52 -12 34 -5 41 -2 84 43 34 36 47 59 50
85 l3 35 85 -23 c47 -13 158 -43 247 -67 l162 -44 51 51 50 52 0 100 0 101
-200 53 -200 53 0 101 0 101 -97 25 -98 25 -3 101 -3 101 -297 79 -297 80 -3
136 -3 136 50 -13 49 -13 51 52 51 52 0 199 0 200 -293 78 c-160 42 -295 77
-299 77 -4 0 -30 -22 -57 -48z"/>
</g>
</svg>
